<?xml version="1.0" standalone="no"?>
<!DOCTYPE svg PUBLIC "-//W3C//DTD SVG 20010904//EN"
 "http://www.w3.org/TR/2001/REC-SVG-20010904/DTD/svg10.dtd">
<svg version="1.0" xmlns="http://www.w3.org/2000/svg"
 width="300.000000pt" height="300.000000pt" viewBox="0 0 300.000000 300.000000"
 preserveAspectRatio="xMidYMid meet">
<metadata>
Created by potrace 1.14, written by Peter Selinger 2001-2017
</metadata>
<g transform="translate(0.000000,300.000000) scale(0.100000,-0.100000)"
fill="#000000" stroke="none">
<path d="M419 1979 c-110 -23 -150 -139 -143 -414 5 -172 6 -189 23 -280 5
-33 13 -80 16 -105 6 -38 54 -289 72 -370 21 -96 6 -141 -63 -187 -30 -20 -54
-42 -54 -49 0 -8 32 -35 70 -60 39 -26 70 -48 70 -49 0 -1 -38 5 -84 13 -91
16 -130 12 -105 -12 8 -8 32 -17 54 -20 22 -3 56 -10 75 -14 l35 -8 -38 -13
c-59 -20 -45 -40 70 -98 l101 -51 -31 -12 c-18 -7 -41 -16 -52 -20 -11 -5 -49
-14 -85 -20 -92 -17 -100 -20 -100 -35 0 -21 17 -22 108 -5 l85 16 64 -42 c35
-23 111 -65 168 -93 l104 -51 720 0 720 0 83 40 c46 21 123 63 173 93 l89 54
80 -17 c83 -18 106 -17 106 5 0 17 -25 24 -133 41 -20 3 -58 15 -84 26 l-46
20 93 48 c122 63 134 80 73 101 l-38 13 35 7 c19 5 53 11 75 14 22 4 46 13 54
20 25 25 -14 29 -102 12 -45 -9 -82 -15 -83 -14 -1 1 28 23 64 48 37 25 68 53
70 61 2 9 -13 25 -35 39 -43 26 -72 55 -83 84 -8 22 -5 95 6 135 4 14 8 27 9
30 2 11 17 87 21 110 3 14 11 59 19 100 16 85 40 230 50 305 13 95 13 349 0
415 -21 111 -42 148 -99 177 -42 22 -194 20 -311 -3 -11 -3 -36 -7 -55 -10
-65 -10 -342 -82 -510 -131 -72 -22 -107 -27 -145 -22 -27 3 -94 4 -147 2
-100 -3 -106 -2 -318 56 -64 18 -227 60 -295 77 -18 4 -43 9 -144 29 -87 17
-223 24 -272 14z"/>
</g>
</svg>
